<svg width="1024" height="1024" viewBox="0 0 1024 1024" fill="none" xmlns="http://www.w3.org/2000/svg">
<path d="M512 0L1024 512L512 1024L3.8147e-06 512L512 0Z" fill="white"/>
<path d="M512 1024V512H1024L512 1024Z" fill="url(#paint0_linear)"/>
<path d="M512 1024V512H0L512 1024Z" fill="url(#paint1_linear)"/>
<path d="M512 1024V512H0L512 1024Z" fill="url(#paint2_linear)" fill-opacity="0.5"/>
<path d="M512 0V512H0L512 0Z" fill="url(#paint3_linear)"/>
<path d="M512 0V512H0L512 0Z" fill="url(#paint4_linear)" fill-opacity="0.5"/>
<path d="M512 0V512H1024L512 0Z" fill="url(#paint5_linear)"/>
<defs>
<linearGradient id="paint0_linear" x1="-8.00002" y1="1536" x2="1024" y2="-512" gradientUnits="userSpaceOnUse">
<stop offset="0.304355" stop-color="#C879F6"/>
<stop offset="1" stop-color="#CE87F7" stop-opacity="0.2"/>
</linearGradient>
<linearGradient id="paint1_linear" x1="0" y1="1024" x2="512" y2="-512" gradientUnits="userSpaceOnUse">
<stop offset="0.111899" stop-color="#804DE5"/>
<stop offset="0.28528" stop-color="#804DE5" stop-opacity="0.9"/>
<stop offset="1" stop-color="#804DE5" stop-opacity="0.2"/>
</linearGradient>
<linearGradient id="paint2_linear" x1="1024" y1="-1.52588e-05" x2="6.10352e-05" y2="2048" gradientUnits="userSpaceOnUse">
<stop offset="0.295332" stop-color="#804DE6"/>
<stop offset="0.49914" stop-color="#804DE6" stop-opacity="0"/>
</linearGradient>
<linearGradient id="paint3_linear" x1="-1.52588e-05" y1="512" x2="512" y2="-512" gradientUnits="userSpaceOnUse">
<stop stop-color="#AE75F0"/>
<stop offset="1" stop-color="#AE75F0" stop-opacity="0.2"/>
</linearGradient>
<linearGradient id="paint4_linear" x1="1024" y1="0" x2="-1.52588e-05" y2="512" gradientUnits="userSpaceOnUse">
<stop stop-color="#AE75F0"/>
<stop offset="1" stop-color="#AE75F0" stop-opacity="0"/>
</linearGradient>
<linearGradient id="paint5_linear" x1="512" y1="512" x2="1024" y2="-512" gradientUnits="userSpaceOnUse">
<stop stop-color="#F0C2FF"/>
<stop offset="1" stop-color="#F2CCFF" stop-opacity="0.2"/>
</linearGradient>
</defs>
</svg>
