<svg width="20" height="20" viewBox="0 0 20 20" fill="none" xmlns="http://www.w3.org/2000/svg">
<g id="arrow_forward_24px">
<path id="icon/navigation/arrow_forward_24px" d="M4.34063 10.8333H13.649L9.58229 14.9C9.25729 15.225 9.25729 15.7583 9.58229 16.0833C9.90729 16.4083 10.4323 16.4083 10.7573 16.0833L16.249 10.5917C16.574 10.2667 16.574 9.74167 16.249 9.41667L10.7656 3.91667C10.6099 3.76062 10.3986 3.67293 10.1781 3.67293C9.9577 3.67293 9.74632 3.76062 9.59063 3.91667C9.26563 4.24167 9.26563 4.76667 9.59063 5.09167L13.649 9.16667H4.34063C3.88229 9.16667 3.50729 9.54167 3.50729 10C3.50729 10.4583 3.88229 10.8333 4.34063 10.8333Z" fill="black" fill-opacity="0.54"/>
</g>
</svg>
