<svg width="22" height="22" viewBox="0 0 22 22" fill="none" xmlns="http://www.w3.org/2000/svg">
<g id="calendar_today_24px">
<path id="icon/action/calendar_today_24px" fill-rule="evenodd" clip-rule="evenodd" d="M17.4167 2.75H18.3333C19.3417 2.75 20.1667 3.575 20.1667 4.58333V19.25C20.1667 20.2583 19.3417 21.0833 18.3333 21.0833H3.66666C2.65833 21.0833 1.83333 20.2583 1.83333 19.25V4.58333C1.83333 3.575 2.65833 2.75 3.66666 2.75H4.58333V1.83333C4.58333 1.32916 4.99583 0.916664 5.49999 0.916664C6.00416 0.916664 6.41666 1.32916 6.41666 1.83333V2.75H15.5833V1.83333C15.5833 1.32916 15.9958 0.916664 16.5 0.916664C17.0042 0.916664 17.4167 1.32916 17.4167 1.83333V2.75ZM4.58333 19.25H17.4167C17.9208 19.25 18.3333 18.8375 18.3333 18.3333V7.33333H3.66666V18.3333C3.66666 18.8375 4.07916 19.25 4.58333 19.25Z" fill="black" fill-opacity="0.54"/>
</g>
</svg>
