<svg width="20" height="20" viewBox="0 0 20 20" fill="none" xmlns="http://www.w3.org/2000/svg">
<g opacity="0.6" clip-path="url(#clip0)">
<path d="M10.0001 0C4.47789 0 0 4.47711 0 10.0001C0 14.4184 2.86531 18.1669 6.83867 19.4891C7.33844 19.5817 7.52195 19.2722 7.52195 19.008C7.52195 18.7696 7.51258 17.9819 7.50836 17.1463C4.72633 17.7512 4.1393 15.9664 4.1393 15.9664C3.68438 14.8105 3.02891 14.5031 3.02891 14.5031C2.12164 13.8825 3.09734 13.8953 3.09734 13.8953C4.10148 13.9658 4.63023 14.9258 4.63023 14.9258C5.52219 16.4545 6.96969 16.0126 7.54031 15.757C7.63008 15.1108 7.88922 14.6695 8.17523 14.4198C5.95406 14.167 3.61914 13.3095 3.61914 9.47781C3.61914 8.38602 4.00977 7.49391 4.64945 6.79359C4.54563 6.54172 4.20336 5.52469 4.74633 4.14719C4.74633 4.14719 5.58609 3.87844 7.49711 5.17227C8.29477 4.9507 9.15024 4.83961 10.0001 4.83578C10.8499 4.83961 11.7061 4.95062 12.5052 5.17227C14.4139 3.87852 15.2525 4.14727 15.2525 4.14727C15.7968 5.52461 15.4544 6.5418 15.3505 6.79359C15.9917 7.49391 16.3797 8.38602 16.3797 9.47781C16.3797 13.3187 14.0403 14.1644 11.8135 14.412C12.1722 14.7223 12.4918 15.3309 12.4918 16.2638C12.4918 17.6018 12.4802 18.6787 12.4802 19.008C12.4802 19.2742 12.6602 19.586 13.1671 19.4877C17.1383 18.1641 20 14.417 20 10.0002C20 4.47711 15.5227 0 10.0001 0ZM3.74539 14.2453C3.72336 14.295 3.64516 14.3099 3.57398 14.2758C3.50141 14.2432 3.4607 14.1755 3.48414 14.1256C3.5057 14.0745 3.58406 14.0602 3.65641 14.0945C3.72906 14.1271 3.77047 14.1955 3.74539 14.2453ZM4.23727 14.6842C4.18961 14.7284 4.09633 14.7079 4.03305 14.638C3.96766 14.5684 3.95539 14.4751 4.00375 14.4302C4.05297 14.386 4.14336 14.4067 4.20891 14.4764C4.27437 14.547 4.28703 14.6395 4.23727 14.6842ZM4.57477 15.2458C4.51344 15.2884 4.41328 15.2484 4.35133 15.1595C4.29008 15.0706 4.29008 14.964 4.35266 14.9213C4.41477 14.8785 4.51344 14.917 4.57617 15.0052C4.63727 15.0956 4.63727 15.2023 4.57469 15.2459L4.57477 15.2458ZM5.14539 15.8962C5.09062 15.9566 4.97383 15.9404 4.88836 15.8579C4.80094 15.7773 4.77664 15.6629 4.83164 15.6024C4.88711 15.5418 5.00453 15.5588 5.09063 15.6407C5.17734 15.7212 5.20391 15.8364 5.14539 15.8962ZM5.88305 16.1157C5.85883 16.1941 5.74633 16.2297 5.63312 16.1964C5.52 16.1621 5.44602 16.0704 5.46883 15.9913C5.49234 15.9123 5.60531 15.8753 5.71938 15.9109C5.83234 15.945 5.90656 16.0361 5.88305 16.1158V16.1157ZM6.72242 16.2089C6.72523 16.2913 6.62922 16.3597 6.51031 16.3612C6.39078 16.3639 6.29398 16.2972 6.29266 16.2159C6.29266 16.1327 6.38656 16.065 6.50617 16.063C6.62508 16.0606 6.72242 16.1269 6.72242 16.2089ZM7.54703 16.1773C7.56125 16.2577 7.47867 16.3404 7.36055 16.3624C7.24453 16.3836 7.13703 16.3339 7.12227 16.2541C7.10789 16.1716 7.19203 16.089 7.30789 16.0677C7.42617 16.0471 7.53195 16.0955 7.54703 16.1773Z" fill="#161614"/>
</g>
<defs>
<clipPath id="clip0">
<rect width="20" height="19.5312" fill="white"/>
</clipPath>
</defs>
</svg>
