<svg width="24" height="24" viewBox="0 0 24 24" fill="none" xmlns="http://www.w3.org/2000/svg">
<g id="history_24px">
<path id="icon/action/history_24px" fill-rule="evenodd" clip-rule="evenodd" d="M4.14403 12.0017C4.14403 6.95174 8.31403 2.86174 13.404 3.00174C18.094 3.13174 22.014 7.05174 22.144 11.7417C22.284 16.8317 18.194 21.0017 13.144 21.0017C11.054 21.0017 9.14403 20.2917 7.62403 19.0917C7.15403 18.7317 7.12403 18.0217 7.54403 17.6017C7.90403 17.2417 8.46403 17.2117 8.86403 17.5217C10.044 18.4517 11.534 19.0017 13.144 19.0017C17.044 19.0017 20.194 15.8117 20.144 11.9017C20.094 8.18174 16.964 5.05174 13.244 5.00174C9.32403 4.95174 6.14403 8.10174 6.14403 12.0017H7.93403C8.38403 12.0017 8.60403 12.5417 8.29403 12.8517L5.50403 15.6517C5.30403 15.8517 4.99403 15.8517 4.79403 15.6517L2.00403 12.8517C1.68403 12.5417 1.90403 12.0017 2.35403 12.0017H4.14403ZM12.144 8.75174C12.144 8.34174 12.484 8.00174 12.894 8.00174C13.304 8.00174 13.644 8.34174 13.644 8.74174V12.1417L16.524 13.8517C16.874 14.0617 16.994 14.5217 16.784 14.8817C16.574 15.2317 16.114 15.3517 15.754 15.1417L12.634 13.2917C12.334 13.1117 12.144 12.7817 12.144 12.4317V8.75174Z" fill="black" fill-opacity="0.54"/>
</g>
</svg>
