<svg width="64" height="64" viewBox="0 0 64 64" fill="none" xmlns="http://www.w3.org/2000/svg">
<path d="M32 0L64 32L32 64L3.8147e-06 32L32 0Z" fill="white"/>
<path d="M32 64V32H64L32 64Z" fill="url(#paint0_linear)"/>
<path d="M32 64V32H0L32 64Z" fill="url(#paint1_linear)"/>
<path d="M32 64V32H0L32 64Z" fill="url(#paint2_linear)" fill-opacity="0.5"/>
<path d="M32 0V32H0L32 0Z" fill="url(#paint3_linear)"/>
<path d="M32 0V32H0L32 0Z" fill="url(#paint4_linear)" fill-opacity="0.5"/>
<path d="M32 0V32H64L32 0Z" fill="url(#paint5_linear)"/>
<defs>
<linearGradient id="paint0_linear" x1="-0.500001" y1="96" x2="64" y2="-32" gradientUnits="userSpaceOnUse">
<stop offset="0.304355" stop-color="#C879F6"/>
<stop offset="1" stop-color="#CE87F7" stop-opacity="0.2"/>
</linearGradient>
<linearGradient id="paint1_linear" x1="0" y1="64" x2="32" y2="-32" gradientUnits="userSpaceOnUse">
<stop offset="0.111899" stop-color="#804DE5"/>
<stop offset="0.28528" stop-color="#804DE5" stop-opacity="0.9"/>
<stop offset="1" stop-color="#804DE5" stop-opacity="0.2"/>
</linearGradient>
<linearGradient id="paint2_linear" x1="64" y1="-9.53674e-07" x2="3.8147e-06" y2="128" gradientUnits="userSpaceOnUse">
<stop offset="0.295332" stop-color="#804DE6"/>
<stop offset="0.49914" stop-color="#804DE6" stop-opacity="0"/>
</linearGradient>
<linearGradient id="paint3_linear" x1="-9.53674e-07" y1="32" x2="32" y2="-32" gradientUnits="userSpaceOnUse">
<stop stop-color="#AE75F0"/>
<stop offset="1" stop-color="#AE75F0" stop-opacity="0.2"/>
</linearGradient>
<linearGradient id="paint4_linear" x1="64" y1="0" x2="-9.53674e-07" y2="32" gradientUnits="userSpaceOnUse">
<stop stop-color="#AE75F0"/>
<stop offset="1" stop-color="#AE75F0" stop-opacity="0"/>
</linearGradient>
<linearGradient id="paint5_linear" x1="32" y1="32" x2="64" y2="-32" gradientUnits="userSpaceOnUse">
<stop stop-color="#F0C2FF"/>
<stop offset="1" stop-color="#F2CCFF" stop-opacity="0.2"/>
</linearGradient>
</defs>
</svg>
